<svg width="55" height="88" viewBox="0 0 55 88" fill="none" xmlns="http://www.w3.org/2000/svg">
<path d="M26.7656 3.58887C27.0211 3.14467 27.659 3.14709 27.9131 3.57812C32.549 11.4414 38.9234 22.2513 44.1396 32.8574C46.7475 38.1599 49.054 43.3884 50.7061 48.1523C52.365 52.9364 53.3311 57.1607 53.3311 60.4854C53.331 74.8529 41.684 86.4997 27.3164 86.5C12.9486 86.5 1.30082 74.8531 1.30078 60.4854C1.30078 57.1658 2.28212 52.946 3.96289 48.1641C5.63636 43.4029 7.96907 38.1778 10.5967 32.877C15.8542 22.2707 22.2369 11.4686 26.7656 3.58887Z" stroke="#E21221" stroke-width="2.60152" stroke-linejoin="round"/>
<path d="M23.7388 28.777C17.8854 24.2244 14.6335 28.1266 13.0075 28.777L2.60145 51.0548C0.650309 65.9051 2.60145 87.8012 30.5678 86.1753C55.2822 84.7384 55.0654 56.7998 50.4043 46.8273L40.9738 26.8257C35.4207 22.7783 33.8187 24.2449 33.3566 26.3055C33.0019 27.8874 32.7307 29.6437 31.2476 30.2986C29.4919 31.0738 26.8113 31.1668 23.7388 28.777Z" fill="#E21221"/>
</svg>
