<svg width="84" height="135" viewBox="0 0 84 135" fill="none" xmlns="http://www.w3.org/2000/svg">
<path d="M41.1533 5.51855C41.546 4.83536 42.5271 4.83844 42.918 5.50098C50.046 17.5912 59.8468 34.2128 67.8672 50.5205C71.8768 58.6733 75.4237 66.7113 77.9639 74.0361C80.5148 81.3922 82 87.888 82 93C82 115.091 64.0914 133 42 133C19.9086 133 2 115.091 2 93C2 87.896 3.50849 81.4082 6.09277 74.0557C8.66585 66.735 12.2528 58.7013 16.293 50.5508C24.3767 34.2429 34.1901 17.6342 41.1533 5.51855Z" stroke="#E21221" stroke-width="4" stroke-linejoin="round"/>
<path d="M36.4999 44.2465C27.4999 37.2465 22.4999 43.2465 19.9999 44.2465L3.99989 78.5C0.999895 101.333 3.9999 135 46.9999 132.5C85 130.291 84.6665 87.3333 77.4999 72L62.9999 41.2463C54.4616 35.0231 51.9985 37.278 51.288 40.4464C50.7425 42.8787 50.3256 45.5791 48.0452 46.586C45.3456 47.7779 41.2241 47.9209 36.4999 44.2465Z" fill="#E21221"/>
</svg>
